<?xml version="1.0" encoding="UTF-8" standalone="no"?>
<!-- Generator: Adobe Illustrator 18.0.0, SVG Export Plug-In . SVG Version: 6.00 Build 0)  -->

<svg
   xmlns:dc="http://purl.org/dc/elements/1.1/"
   xmlns:cc="http://creativecommons.org/ns#"
   xmlns:rdf="http://www.w3.org/1999/02/22-rdf-syntax-ns#"
   xmlns:svg="http://www.w3.org/2000/svg"
   xmlns="http://www.w3.org/2000/svg"
   xmlns:sodipodi="http://sodipodi.sourceforge.net/DTD/sodipodi-0.dtd"
   xmlns:inkscape="http://www.inkscape.org/namespaces/inkscape"
   version="1.1"
   id="Capa_1"
   x="0px"
   y="0px"
   viewBox="0 0 512 512"
   style="enable-background:new 0 0 512 512;"
   xml:space="preserve"
   sodipodi:docname="synthesizer-svgrepo-com.svg"
   inkscape:version="0.92.4 (5da689c313, 2019-01-14)"><metadata
   id="metadata39"><rdf:RDF><cc:Work
       rdf:about=""><dc:format>image/svg+xml</dc:format><dc:type
         rdf:resource="http://purl.org/dc/dcmitype/StillImage" /></cc:Work></rdf:RDF></metadata><defs
   id="defs37" /><sodipodi:namedview
   pagecolor="#ffffff"
   bordercolor="#666666"
   borderopacity="1"
   objecttolerance="10"
   gridtolerance="10"
   guidetolerance="10"
   inkscape:pageopacity="0"
   inkscape:pageshadow="2"
   inkscape:window-width="1242"
   inkscape:window-height="686"
   id="namedview35"
   showgrid="false"
   inkscape:zoom="0.70504345"
   inkscape:cx="338.44068"
   inkscape:cy="216.94915"
   inkscape:window-x="0"
   inkscape:window-y="0"
   inkscape:window-maximized="0"
   inkscape:current-layer="Capa_1" />
<path
   d="M480,0H32C14.328,0,0,14.327,0,32v448c0,17.673,14.328,32,32,32h448c17.674,0,32-14.327,32-32V32  C512,14.327,497.674,0,480,0z M144,448H64V144h48v144c0,17.673,14.328,32,32,32V448z M304,448h-96V320c17.674,0,32-14.327,32-32V144  h32v144c0,17.673,14.328,32,32,32V448z M280,96c-13.254,0-24-10.745-24-24s10.746-24,24-24s24,10.745,24,24S293.254,96,280,96z   M336,72c0-13.255,10.746-24,24-24s24,10.745,24,24s-10.746,24-24,24S336,85.255,336,72z M448,448h-80V320c17.674,0,32-14.327,32-32  V144h48V448z M440,96c-13.254,0-24-10.745-24-24s10.746-24,24-24s24,10.745,24,24S453.254,96,440,96z"
   id="path2"
   style="fill:#ff6600" />
<g
   id="g4">
</g>
<g
   id="g6">
</g>
<g
   id="g8">
</g>
<g
   id="g10">
</g>
<g
   id="g12">
</g>
<g
   id="g14">
</g>
<g
   id="g16">
</g>
<g
   id="g18">
</g>
<g
   id="g20">
</g>
<g
   id="g22">
</g>
<g
   id="g24">
</g>
<g
   id="g26">
</g>
<g
   id="g28">
</g>
<g
   id="g30">
</g>
<g
   id="g32">
</g>
</svg>